<?xml version="1.0" standalone="no"?>
<!DOCTYPE svg PUBLIC "-//W3C//DTD SVG 20010904//EN"
 "http://www.w3.org/TR/2001/REC-SVG-20010904/DTD/svg10.dtd">
<svg version="1.0" xmlns="http://www.w3.org/2000/svg"
 width="32.000000pt" height="32.000000pt" viewBox="0 0 32.000000 32.000000"
 preserveAspectRatio="xMidYMid meet">

<g transform="translate(0.000000,32.000000) scale(0.100000,-0.100000)"
fill="#000000" stroke="none">
<path d="M103 280 c-29 -17 -37 -30 -35 -51 1 -4 -6 -6 -16 -5 -21 1 -28 -30
-11 -50 7 -9 14 -34 14 -55 2 -77 77 -126 130 -84 19 16 19 16 -3 5 -13 -6
-37 -10 -55 -8 -44 4 -70 55 -61 122 6 39 12 50 36 62 37 19 75 6 119 -40 29
-30 30 -30 44 -12 31 41 9 89 -52 120 -42 21 -71 20 -110 -4z"/>
<path d="M87 153 c-3 -5 5 -8 18 -8 13 0 21 3 18 8 -2 4 -10 7 -18 7 -8 0 -16
-3 -18 -7z"/>
<path d="M157 153 c-3 -5 5 -8 18 -8 13 0 21 3 18 8 -2 4 -10 7 -18 7 -8 0
-16 -3 -18 -7z"/>
<path d="M244 127 c15 -11 17 -17 7 -35 -6 -12 -9 -22 -7 -22 3 0 10 9 16 19
12 24 3 51 -18 51 -13 0 -13 -2 2 -13z"/>
<path d="M106 115 c-3 -8 -1 -15 4 -15 6 0 10 7 10 15 0 8 -2 15 -4 15 -2 0
-6 -7 -10 -15z"/>
<path d="M160 115 c0 -8 4 -15 10 -15 5 0 7 7 4 15 -4 8 -8 15 -10 15 -2 0 -4
-7 -4 -15z"/>
<path d="M231 44 c0 -11 3 -14 6 -6 3 7 2 16 -1 19 -3 4 -6 -2 -5 -13z"/>
</g>
</svg>
